<svg xmlns="http://www.w3.org/2000/svg" viewBox="0 0 200 200" width="200" height="200">
  <!-- Chrome Logo (Simplified) -->
  <circle cx="65" cy="65" r="45" fill="#ffffff" stroke="#333333" stroke-width="4"/>
  <circle cx="65" cy="65" r="15" fill="#4285F4"/>
  <path d="M65 20 A45 45 0 0 1 100 65 L65 65 Z" fill="#EA4335"/>
  <path d="M65 65 L100 65 A45 45 0 0 1 80 100 L65 65 Z" fill="#FBBC05"/>
  <path d="M65 65 L80 100 A45 45 0 0 1 30 80 L65 65 Z" fill="#34A853"/>
  <path d="M65 65 L30 80 A45 45 0 0 1 40 30 L65 65 Z" fill="#4285F4"/>
  <path d="M65 65 L40 30 A45 45 0 0 1 65 20 L65 65 Z" fill="#EA4335"/>
  
  <!-- Document Icon -->
  <path d="M105 30 H160 L180 50 V160 A10 10 0 0 1 170 170 H105 A10 10 0 0 1 95 160 V40 A10 10 0 0 1 105 30 Z" fill="#ffffff" stroke="#333333" stroke-width="4"/>
  <path d="M160 30 V50 H180 L160 30" fill="#ffffff" stroke="#333333" stroke-width="4"/>
  
  <!-- Text on Document -->
  <line x1="115" y1="60" x2="160" y2="60" stroke="#333333" stroke-width="3"/>
  <line x1="115" y1="75" x2="170" y2="75" stroke="#333333" stroke-width="2"/>
  
  <text x="115" y="95" font-family="Arial, sans-serif" font-size="8" font-weight="bold" fill="#333333">Description</text>
  <text x="115" y="105" font-family="Arial, sans-serif" font-size="8" font-weight="bold" fill="#333333">Steps to Reproduce</text>
  <text x="115" y="115" font-family="Arial, sans-serif" font-size="8" font-weight="bold" fill="#333333">Regression Candidate</text>
  <text x="115" y="125" font-family="Arial, sans-serif" font-size="8" font-weight="bold" fill="#333333">Priority (Critical)</text>
  <text x="115" y="135" font-family="Arial, sans-serif" font-size="8" font-weight="bold" fill="#333333">Steps</text>
  <text x="115" y="145" font-family="Arial, sans-serif" font-size="8" font-weight="bold" fill="#333333">Result</text>
  
  <!-- Checkbox for Regression Candidate -->
  <rect x="170" y="110" width="10" height="10" fill="#ffffff" stroke="#333333" stroke-width="2"/>
  <path d="M171 115 L174 118 L179 111" stroke="#333333" stroke-width="2" fill="none"/>
  
  <!-- Lines for the fields -->
  <line x1="150" y1="125" x2="170" y2="125" stroke="#333333" stroke-width="2"/>
  <line x1="140" y1="135" x2="170" y2="135" stroke="#333333" stroke-width="2"/>
  <line x1="150" y1="145" x2="170" y2="145" stroke="#333333" stroke-width="2"/>
</svg> 